<?xml version="1.0" standalone="no"?>
<!DOCTYPE svg PUBLIC "-//W3C//DTD SVG 20010904//EN"
 "http://www.w3.org/TR/2001/REC-SVG-20010904/DTD/svg10.dtd">
<svg version="1.0" xmlns="http://www.w3.org/2000/svg"
 width="504.000000pt" height="504.000000pt" viewBox="0 0 504.000000 504.000000"
 preserveAspectRatio="xMidYMid meet">
<metadata>
Created by potrace 1.14, written by Peter Selinger 2001-2017
</metadata>
<g transform="translate(0.000000,504.000000) scale(0.100000,-0.100000)"
fill="#000000" stroke="none">
<path d="M2457 4129 c-67 -9 -165 -26 -217 -39 -52 -12 -104 -24 -115 -26 -11
-1 -21 -3 -22 -4 -2 -2 -6 -3 -10 -5 -5 -1 -15 -4 -23 -8 -19 -7 -221 -78
-235 -81 -13 -4 -27 -10 -204 -86 -80 -34 -163 -71 -185 -82 -23 -12 -42 -20
-44 -19 -1 1 -29 -12 -62 -29 -33 -16 -65 -30 -72 -30 -17 -1 -52 -31 -66 -57
-8 -15 -10 -60 -5 -150 4 -70 7 -144 8 -163 0 -53 37 -90 89 -90 59 0 173 -26
217 -49 52 -27 79 -50 135 -112 60 -67 119 -243 129 -386 3 -37 8 -78 10 -90
6 -26 5 -27 -140 -43 -55 -6 -118 -16 -140 -21 -22 -5 -45 -11 -52 -12 -25 -6
-112 -68 -140 -100 -64 -76 -73 -87 -65 -87 4 0 2 -4 -3 -8 -14 -10 -39 -74
-155 -397 -55 -154 -103 -287 -107 -295 -3 -8 -7 -17 -8 -20 -4 -19 -29 -87
-34 -95 -3 -5 -6 -14 -7 -20 -1 -5 -18 -57 -39 -115 -20 -58 -37 -122 -36
-143 0 -86 56 -183 135 -237 28 -19 54 -39 58 -45 4 -5 8 -6 8 -2 0 4 10 2 22
-5 13 -6 28 -13 35 -14 6 -1 34 -7 63 -13 36 -8 473 -11 1463 -11 1227 0 1420
2 1472 15 33 9 66 17 73 18 7 2 38 20 69 40 31 20 59 37 62 37 10 0 69 91 86
133 19 45 21 167 4 167 -6 0 -28 52 -34 80 -1 3 -7 16 -13 30 -15 33 -154 382
-157 395 -1 6 -11 30 -22 55 -11 25 -36 88 -56 140 -19 52 -39 104 -43 115 -4
11 -8 25 -9 30 0 6 -8 21 -18 35 -9 13 -17 30 -17 37 0 14 -29 63 -83 144 -31
45 -103 106 -114 96 -3 -3 -5 -48 -6 -100 0 -81 3 -99 22 -125 11 -17 21 -36
21 -44 0 -7 7 -23 15 -34 13 -19 54 -114 59 -139 2 -5 8 -21 14 -35 34 -74 90
-220 85 -220 -3 0 -1 -6 5 -13 9 -10 55 -122 57 -137 0 -3 4 -11 8 -17 5 -7 5
-13 0 -13 -4 0 -3 -4 3 -8 11 -8 132 -309 140 -352 4 -17 0 -32 -11 -43 -9
-10 -13 -17 -9 -17 18 0 -50 -59 -94 -81 l-47 -24 -1455 -3 c-1620 -3 -1499
-8 -1579 66 -22 20 -45 50 -51 66 -12 32 -4 90 11 81 5 -4 6 0 4 8 -3 7 2 31
11 53 10 21 19 46 20 54 2 8 7 23 12 35 6 11 27 70 48 130 20 61 41 116 47
123 5 6 7 12 3 12 -5 0 33 111 65 185 7 17 13 33 14 38 2 4 4 9 5 12 1 3 4 10
5 15 1 6 3 11 5 13 1 1 3 9 5 17 18 77 103 280 117 280 5 0 7 4 4 8 -9 16 79
89 125 105 25 9 70 18 99 21 30 3 91 9 135 15 100 13 171 19 497 41 86 6 160
10 165 9 4 -1 85 -1 179 0 l171 1 34 49 c18 27 37 47 41 45 4 -3 8 2 8 10 0
19 32 90 43 94 4 2 5 8 1 13 -3 5 -1 9 3 9 5 0 14 15 21 33 6 17 23 44 37 59
14 15 25 31 25 36 0 14 114 133 130 135 8 2 20 5 25 9 44 28 370 29 458 2 23
-7 26 62 12 230 -9 97 -8 96 -25 171 -7 33 -13 65 -14 70 -1 6 -4 15 -7 20 -4
6 -9 24 -13 40 -11 44 -98 227 -118 247 -10 10 -18 21 -18 26 -1 15 -180 192
-195 192 -3 0 -29 15 -58 33 -45 29 -79 47 -97 52 -19 4 -87 29 -95 34 -14 8
-42 14 -156 30 -116 18 -219 18 -352 0z"/>
<path d="M1068 3611 c-60 -30 -93 -58 -113 -95 -10 -19 -22 -33 -25 -31 -10 6
-4 -110 7 -130 11 -20 95 -102 100 -97 2 1 4 2 6 1 35 -9 69 -6 89 10 20 17
23 28 23 93 0 102 -19 236 -36 253 -12 12 -20 11 -51 -4z"/>
<path d="M3329 2936 c-2 -2 -35 -6 -74 -9 -38 -4 -83 -11 -100 -17 -30 -10
-96 -85 -151 -170 -16 -25 -32 -46 -36 -48 -4 -2 -12 -21 -18 -41 -11 -43
-105 -191 -121 -191 -6 0 -8 -4 -5 -9 3 -5 -4 -20 -17 -33 -81 -91 -93 -158
-34 -202 22 -16 33 -18 64 -10 31 7 47 22 96 92 33 46 62 81 64 78 3 -2 -1
-55 -7 -118 -19 -177 -18 -203 10 -233 47 -50 138 -21 146 47 5 47 25 256 28
301 2 21 7 41 11 45 4 4 4 -67 0 -158 -12 -269 -10 -287 47 -316 28 -15 33
-15 64 2 18 10 38 30 43 44 10 24 25 250 22 320 -3 48 9 110 20 110 5 0 8 -75
7 -179 -2 -213 4 -236 63 -246 47 -8 84 12 100 52 5 14 10 93 10 177 2 225 23
260 33 52 4 -65 11 -126 16 -137 24 -45 97 -53 135 -15 l23 23 -3 284 c-3 271
-7 315 -35 384 -18 47 -39 64 -99 82 -67 20 -65 19 -166 28 -44 3 -92 8 -106
10 -15 2 -28 3 -30 1z"/>
</g>
</svg>
