<?xml version="1.0" standalone="no"?>
<!DOCTYPE svg PUBLIC "-//W3C//DTD SVG 20010904//EN"
 "http://www.w3.org/TR/2001/REC-SVG-20010904/DTD/svg10.dtd">
<svg version="1.0" xmlns="http://www.w3.org/2000/svg"
 width="366.000000pt" height="366.000000pt" viewBox="0 0 366.000000 366.000000"
 preserveAspectRatio="xMidYMid meet">
<metadata>
Created by potrace 1.14, written by Peter Selinger 2001-2017
</metadata>
<g transform="translate(0.000000,366.000000) scale(0.100000,-0.100000)"
fill="#000000" stroke="none">
<path d="M1664 3433 c-128 -13 -318 -54 -424 -90 -228 -77 -375 -135 -555
-218 -33 -15 -87 -40 -120 -55 -201 -92 -189 -74 -179 -267 4 -82 7 -158 7
-169 0 -12 9 -33 21 -47 18 -22 33 -27 114 -37 134 -15 191 -40 266 -114 100
-98 156 -245 172 -448 l6 -87 -33 -5 c-19 -3 -77 -10 -129 -17 -171 -19 -228
-45 -319 -145 -64 -70 -77 -99 -198 -434 -252 -699 -244 -678 -244 -739 0 -55
30 -131 69 -177 25 -29 111 -94 142 -106 93 -37 94 -37 1570 -38 1381 0 1438
1 1502 19 166 48 278 168 279 302 0 57 -3 77 -13 94 -3 6 -49 120 -102 255
-54 135 -101 254 -106 265 -34 75 -122 305 -125 325 -2 15 -91 180 -111 207
-33 44 -96 103 -110 103 -18 0 -23 -34 -19 -119 3 -66 9 -88 47 -166 25 -49
50 -106 57 -125 7 -19 17 -44 22 -55 4 -11 42 -108 84 -215 42 -107 82 -208
90 -225 45 -104 128 -323 128 -341 -1 -24 -35 -78 -68 -106 -11 -10 -44 -27
-73 -38 -53 -20 -66 -20 -1500 -18 l-1447 3 -44 23 c-24 13 -59 40 -77 60 -27
30 -34 45 -34 80 0 23 3 42 8 42 4 0 8 11 8 24 1 13 9 38 17 57 9 19 36 93 61
164 25 72 64 182 87 245 23 63 62 171 85 240 53 150 70 192 105 248 55 88 108
118 232 133 331 38 380 42 607 54 69 4 143 8 165 10 22 2 117 4 210 5 l170 0
23 41 c13 22 30 43 38 46 8 3 14 10 14 15 0 16 63 142 75 150 5 4 7 8 2 8 -4
0 19 35 50 78 122 164 128 167 373 167 96 0 195 -2 219 -5 l45 -5 -1 100 c-1
81 -11 212 -18 235 -1 3 -5 28 -10 55 -23 142 -102 325 -187 432 -206 260
-517 370 -924 326z"/>
<path d="M244 2906 c-41 -19 -84 -59 -122 -111 -15 -21 -13 -93 3 -133 33 -82
147 -138 200 -99 17 13 20 28 21 89 1 68 -10 196 -21 244 -7 32 -27 35 -81 10z"/>
<path d="M2475 2233 c-119 -8 -151 -21 -198 -76 -62 -73 -123 -167 -143 -218
-14 -36 -93 -161 -113 -179 -4 -3 -26 -34 -51 -70 -54 -79 -61 -135 -21 -169
50 -44 118 -20 166 60 17 27 33 49 36 49 3 0 11 12 18 26 6 15 14 25 16 23 2
-3 -2 -61 -9 -129 -18 -171 -16 -208 13 -231 34 -28 96 -25 126 6 14 13 25 34
25 47 0 23 16 207 25 287 11 97 15 47 8 -104 -11 -253 -11 -261 16 -289 31
-33 65 -40 102 -21 41 22 48 47 55 189 3 66 7 137 9 156 1 19 3 56 4 83 0 27
6 47 12 47 8 0 10 -48 5 -173 -4 -119 -3 -183 5 -206 26 -74 148 -65 163 12 5
21 15 242 16 316 0 21 4 31 9 25 5 -5 11 -62 14 -128 5 -111 7 -120 31 -144
33 -34 86 -35 120 -3 l25 23 -1 271 c-1 149 -5 289 -9 312 -24 114 -52 159
-107 171 -15 3 -40 10 -56 15 -16 5 -66 11 -110 14 -45 3 -97 7 -116 8 -19 2
-57 2 -85 0z"/>
</g>
</svg>
